<svg xmlns="http://www.w3.org/2000/svg" viewBox="0 0 64 64" width="64" height="64">
  <path d="M32 2C30.9 2 30 2.9 30 4V24H20C18.9 24 18 24.9 18 26V58C18 59.1 18.9 60 20 60H28C29.1 60 30 59.1 30 58V26C30 24.9 30.9 24 32 24H42C43.1 24 44 24.9 44 26V58C44 59.1 44.9 60 46 60H54C55.1 60 56 59.1 56 58V26C56 24.9 55.1 24 54 24H44V4C44 2.9 43.1 2 42 2H32z" fill="#FFD700"/>
  <path d="M32 0C30.9 0 30 0.9 30 2V22H20C18.9 22 18 22.9 18 24V56C18 57.1 18.9 58 20 58H28C29.1 58 30 57.1 30 56V24C30 22.9 30.9 22 32 22H42C43.1 22 44 22.9 44 24V56C44 57.1 44.9 58 46 58H54C55.1 58 56 57.1 56 56V24C56 22.9 55.1 22 54 22H44V2C44 0.9 43.1 0 42 0H32z" fill="#FF6347"/>
</svg>